<svg xmlns="http://www.w3.org/2000/svg" width="280" height="104" viewBox="0 0 280 104"><title>Coolin — Cooling &amp; Heating</title>
  
  <text x="4" y="46" font-family="Archivo, 'Archivo Black', 'Helvetica Neue', Arial, sans-serif" font-size="54" font-weight="800" letter-spacing="0.27" fill="#FFFFFF">COOL<tspan fill="#FFFFFF">IN</tspan></text>
  <g transform="translate(258 15) scale(0.55)"><g stroke="#FFFFFF" stroke-width="4" stroke-linecap="round" fill="none">
      <path d="M0-16V16"></path>
      <path d="M-13.9-8L13.9 8"></path>
      <path d="M13.9-8L-13.9 8"></path>
      <path d="M0-9.5l-4.2-4.2M0-9.5l4.2-4.2M0 9.5l-4.2 4.2M0 9.5l4.2 4.2"></path>
      <path d="M8.2 4.8l5.2-1.4M8.2 4.8l1.4 5.2M-8.2-4.8l-5.2 1.4M-8.2-4.8l-1.4-5.2"></path>
      <path d="M8.2-4.8l5.2 1.4M8.2-4.8l1.4-5.2M-8.2 4.8l-5.2-1.4M-8.2 4.8l-1.4 5.2"></path>
    </g></g>
  <path d="M4 62c11-8 22-8 33 0s22 8 33 0 22-8 33 0 22 8 33 0 22-8 33 0 22 8 33 0 22-8 33 0 22 8 33 0" stroke="#FFFFFF" stroke-width="3.6" stroke-linecap="round" fill="none"></path>
  <path d="M4 73c11-8 22-8 33 0s22 8 33 0 22-8 33 0 22 8 33 0 22-8 33 0 22 8 33 0 22-8 33 0 22 8 33 0" stroke="#FFFFFF" stroke-width="3.6" stroke-linecap="round" fill="none"></path>
  <text x="4" y="96" font-family="Archivo, 'Archivo Black', 'Helvetica Neue', Arial, sans-serif" font-size="11" font-weight="700" letter-spacing="1.32" fill="#FFFFFF">COOLING &amp; HEATING</text>
</svg>